<svg xmlns="http://www.w3.org/2000/svg" version="1.1" xmlns:xlink="http://www.w3.org/1999/xlink" width="512" height="512" x="0" y="0" viewBox="0 0 24 24" style="enable-background:new 0 0 512 512" xml:space="preserve" fill-rule="evenodd" class=""><g><path d="M19.375 14.72s2.47 2.524 2.47 5.03a3.001 3.001 0 0 1-6 0c0-2.506 2.469-5.03 2.469-5.03a.75.75 0 0 1 1.061 0zM18.456 12.934l-5.657 5.657a3.75 3.75 0 0 1-5.303 0l-4.242-4.242a3.751 3.751 0 0 1 0-5.304l6.363-6.363a.75.75 0 0 1 1.061 0l7.778 7.777a1.75 1.75 0 0 1 0 2.475zm-1.061-1.06a.25.25 0 0 0 0-.354l-7.247-7.247-5.833 5.833a2.25 2.25 0 0 0 0 3.182l4.242 4.242a2.25 2.25 0 0 0 3.182 0z" fill="#FFFFFF" opacity="1" data-original="#000000" class=""></path><path d="M11.89 3.894a.75.75 0 1 1-1.061 1.061L8.405 2.53a.749.749 0 1 1 1.061-1.06zM2.905 10.947h15.313a.75.75 0 0 1 .75.75c0 .448-.171.896-.512 1.237l-5.657 5.657a3.75 3.75 0 0 1-5.303 0l-4.242-4.242a3.755 3.755 0 0 1-1.099-2.652.75.75 0 0 1 .75-.75z" fill="#FFFFFF" opacity="1" data-original="#000000" class=""></path></g></svg>