<svg width="181" height="181" viewBox="0 0 181 181" fill="none" xmlns="http://www.w3.org/2000/svg">
<circle cx="90.7642" cy="90.2324" r="90" fill="#E42219"/>
<path d="M35.9322 78.0077C34.9771 76.9657 33.8483 76.2711 32.7195 75.7501C31.5907 75.2291 30.2883 74.9687 28.9859 74.9687C26.1206 74.9687 23.6894 76.0974 21.6923 78.2681C19.6953 80.5257 18.6533 83.3042 18.6533 86.7773C18.6533 90.0768 19.6953 92.8553 21.7791 95.1128C23.863 97.3704 26.2942 98.4992 29.1596 98.4992C30.462 98.4992 31.5907 98.2387 32.7195 97.8045C33.7615 97.3704 34.8902 96.5889 35.9322 95.547V97.8914H41.4892V75.5765H35.9322V78.0077ZM34.4561 91.4661C33.3273 92.6817 31.8512 93.2895 30.1147 93.2895C28.4649 93.2895 26.9888 92.6817 25.8601 91.3792C24.7313 90.1636 24.1235 88.5139 24.1235 86.6037C24.1235 84.6934 24.7313 83.1305 25.8601 81.9149C26.9888 80.6993 28.3781 80.0915 30.1147 80.0915C31.8512 80.0915 33.3273 80.6993 34.4561 81.9149C35.5849 83.1305 35.9322 84.5198 35.9322 86.43C36.019 88.4271 35.6717 90.2505 34.4561 91.4661ZM73.3552 78.0077C72.4001 76.9657 71.2713 76.2711 70.1425 75.7501C69.0138 75.2291 67.7113 74.9687 66.4089 74.9687C63.5436 74.9687 61.1124 76.0974 59.1153 78.2681C57.1183 80.4389 56.0763 83.3042 56.0763 86.6905C56.0763 89.99 57.1183 92.7685 59.2022 95.026C61.286 97.2836 63.7172 98.4123 66.5826 98.4123C67.885 98.4123 69.0138 98.1518 70.1425 97.7177C71.1845 97.2836 72.3133 96.5021 73.3552 95.4602V97.8045H78.9122V75.5765H73.3552V78.0077ZM71.8791 91.4661C70.7503 92.6817 69.2743 93.2895 67.5377 93.2895C65.888 93.2895 64.4119 92.6817 63.2831 91.3792C62.1543 90.1636 61.5465 88.5139 61.5465 86.6037C61.5465 84.6934 62.1543 83.1305 63.2831 81.9149C64.4119 80.6993 65.8011 80.0915 67.5377 80.0915C69.2743 80.0915 70.7503 80.6993 71.8791 81.9149C73.0079 83.1305 73.3552 84.5198 73.3552 86.43C73.442 88.4271 73.0947 90.2505 71.8791 91.4661ZM112.341 76.0974C111.126 75.316 109.736 74.9687 108.173 74.9687C106.61 74.9687 105.221 75.316 104.006 76.0106C102.703 76.7052 101.661 77.6603 100.793 79.0496C100.098 77.7472 99.23 76.7052 98.1013 76.0106C96.9725 75.316 95.7569 74.9687 94.3677 74.9687C92.9784 74.9687 91.7628 75.2291 90.5472 75.7501C89.4184 76.2711 88.3765 77.0525 87.4214 78.0945V75.4896H81.8644V97.8045H87.4214V87.9061C87.4214 85.7354 87.595 84.1725 87.9424 83.2174C88.2897 82.2622 88.8975 81.4808 89.6789 80.873C90.4604 80.352 91.2418 80.0047 92.1969 80.0047C93.0652 80.0047 93.7599 80.2652 94.2808 80.6993C94.8886 81.1335 95.3228 81.8281 95.5833 82.6964C95.8437 83.5647 96.0174 85.0408 96.0174 87.0378V97.8045H101.574V87.7324C101.574 85.6486 101.748 84.0856 102.095 83.1305C102.443 82.1754 103.05 81.394 103.745 80.873C104.527 80.352 105.395 80.0915 106.35 80.0915C107.566 80.0915 108.521 80.5257 109.128 81.394C109.736 82.2622 110.084 83.9988 110.084 86.5168V97.8045H115.641V84.7803C115.641 82.0886 115.38 80.1784 114.859 78.9628C114.425 77.834 113.557 76.8789 112.341 76.0974ZM135.09 91.2924C133.614 92.7685 131.791 93.5499 129.794 93.5499C128.057 93.5499 126.668 93.029 125.539 92.1607C124.41 91.2056 123.716 89.9031 123.455 88.3402H141.255V87.2983C141.255 83.6515 140.126 80.6993 137.955 78.4418C135.785 76.1843 132.919 75.0555 129.446 75.0555C126.147 75.0555 123.455 76.1843 121.284 78.4418C119.114 80.6993 117.985 83.4778 117.985 86.951C117.985 90.2505 119.114 93.029 121.284 95.2865C123.455 97.4572 126.32 98.586 129.707 98.586C131.964 98.586 133.875 98.1518 135.524 97.3704C137.174 96.5889 138.563 95.3733 139.692 93.6368L135.09 91.2924ZM125.8 81.0466C126.928 80.1784 128.318 79.7442 129.88 79.7442C131.27 79.7442 132.572 80.0915 133.614 80.873C134.656 81.6544 135.437 82.6096 135.785 83.8252H123.716C124.323 82.5227 125.018 81.5676 125.8 81.0466ZM154.453 86.0827L162.007 75.5765H155.668L151.327 81.6544L146.986 75.5765H140.56L148.114 86.1695L139.692 97.8914H146.031L151.24 90.5978L156.45 97.8914H162.875L154.453 86.0827ZM54.8608 74.8818C53.8188 74.8818 52.9505 75.0555 52.1691 75.4896C51.3876 75.8369 50.6062 76.5316 49.651 77.5735V75.6633H44.3545V97.9782H49.9115V86.3432C49.9115 82.0886 51.0403 80.0047 53.9056 80.0047C54.4266 80.0047 54.8607 80.0915 55.3817 80.2652C56.25 78.7023 57.3788 77.313 58.5075 76.0106C57.2919 75.2291 56.0763 74.8818 54.8608 74.8818Z" fill="white"/>
<path d="M26.6417 112.392H26.1208L25.8603 111.871C25.3393 112.305 24.7315 112.565 24.1237 112.565C23.3423 112.565 22.6476 112.305 22.2135 111.871C21.6057 111.35 21.3452 110.481 21.3452 109.353C21.3452 107.182 22.2135 106.14 24.0369 106.14C24.6447 106.14 25.2525 106.314 25.8603 106.748C25.7735 106.574 25.7735 106.4 25.7735 106.227V103.535H26.6417V112.392ZM25.6866 111.176V107.442C25.2525 107.182 24.9052 107.095 24.8183 107.095C24.471 107.008 24.2106 106.921 23.9501 106.921C23.3423 106.921 22.9081 107.095 22.5608 107.529C22.3003 107.963 22.1267 108.571 22.1267 109.439C22.1267 111.089 22.7345 111.958 24.0369 111.958C24.5579 111.871 25.0788 111.61 25.6866 111.176Z" fill="white"/>
<path d="M33.3276 109.613H28.8125C28.8125 110.394 28.9862 110.915 29.2467 111.263C29.5072 111.61 30.0281 111.783 30.7228 111.783C31.591 111.783 32.112 111.523 32.4593 110.915L33.2408 111.263C32.8066 112.131 32.0252 112.565 30.7228 112.565C29.7676 112.565 28.9862 112.304 28.552 111.783C28.1179 111.263 27.8574 110.481 27.8574 109.352C27.8574 108.31 28.0311 107.529 28.4652 107.008C28.8994 106.487 29.6808 106.14 30.7228 106.14C31.7647 106.14 32.4593 106.487 32.8935 107.095C33.154 107.529 33.3276 108.31 33.3276 109.352V109.613ZM32.4593 108.831C32.4593 108.137 32.3725 107.703 32.112 107.355C31.8515 107.008 31.4174 106.834 30.8096 106.834C30.2018 106.834 29.7676 107.008 29.4203 107.268C29.073 107.616 28.8994 108.137 28.8994 108.831H32.4593Z" fill="white"/>
<path d="M36.801 112.478H36.3668C35.4985 112.478 34.9776 111.958 34.9776 111.002V104.317H34.0225V103.535H35.8459V111.002C35.8459 111.437 36.0195 111.697 36.3668 111.697H36.801V112.478Z" fill="white"/>
<path d="M40.013 112.478H39.5788C38.7105 112.478 38.2764 111.957 38.2764 111.002V107.442C38.2764 107.355 38.2764 107.181 38.3632 107.007H37.3213V106.226H39.1447V110.915C39.1447 111.349 39.3183 111.609 39.5788 111.609H40.013V112.478ZM39.1447 104.576C39.1447 104.663 39.1447 104.663 39.0579 104.663H38.1027C38.0159 104.663 38.0159 104.663 38.0159 104.576V103.708C38.0159 103.621 38.0159 103.621 38.1027 103.621H39.0579C39.1447 103.621 39.1447 103.621 39.1447 103.708V104.576Z" fill="white"/>
<path d="M46.0043 106.312L43.7467 112.39H42.7048L40.4473 106.312H41.4024L43.0521 110.828C43.1389 111.001 43.2258 111.349 43.2258 111.783C43.2258 111.609 43.3126 111.262 43.4863 110.828L45.136 106.312H46.0043Z" fill="white"/>
<path d="M51.9956 109.613H47.4805C47.4805 110.394 47.6542 110.915 47.9146 111.263C48.1751 111.61 48.6961 111.783 49.3907 111.783C50.259 111.783 50.78 111.523 51.1273 110.915L51.9087 111.263C51.4746 112.131 50.6932 112.565 49.3907 112.565C48.4356 112.565 47.6542 112.304 47.22 111.783C46.7859 111.263 46.5254 110.481 46.5254 109.352C46.5254 108.31 46.699 107.529 47.1332 107.008C47.5673 106.487 48.3488 106.14 49.3907 106.14C50.4327 106.14 51.1273 106.487 51.5614 107.095C51.8219 107.529 51.9956 108.31 51.9956 109.352V109.613ZM51.0405 108.831C51.0405 108.137 50.9536 107.703 50.6932 107.355C50.4327 107.008 49.9985 106.834 49.3907 106.834C48.7829 106.834 48.3488 107.008 48.0015 107.268C47.6542 107.616 47.4805 108.137 47.4805 108.831H51.0405Z" fill="white"/>
<path d="M56.3368 107.009C56.1632 107.009 55.9895 106.922 55.8159 106.922C55.2949 106.922 54.8608 107.096 54.5134 107.443L54.1661 107.703V112.305H53.2979V106.227H53.9925L54.1661 106.835L54.6871 106.401C55.0344 106.141 55.3817 106.054 55.8159 106.054C55.9895 106.054 56.1632 106.054 56.3368 106.141V107.009Z" fill="white"/>
<path d="M62.5888 106.313L59.7234 113.954C59.5498 114.388 59.3761 114.649 59.1156 114.823C58.8551 114.996 58.421 115.083 57.9 115.083H57.1186V114.302H57.9C58.2473 114.302 58.5078 114.215 58.5946 114.128C58.6815 114.041 58.8551 113.867 58.942 113.52L59.3761 112.478L57.0317 106.227H57.9868L59.6366 110.742C59.6366 110.828 59.7234 111.089 59.8102 111.523C59.8971 111.176 59.9839 110.915 59.9839 110.742L61.6336 106.227L62.5888 106.313Z" fill="white"/>
<path d="M71.4452 112.39H70.7506L70.5769 111.696L70.1428 111.956C69.535 112.39 69.014 112.564 68.5799 112.564C67.8853 112.564 67.3643 112.39 67.017 112.043C66.5828 111.609 66.4092 111.001 66.4092 110.22V106.312H67.2775V110.22C67.2775 111.349 67.7116 111.87 68.5799 111.87C69.014 111.87 69.4482 111.696 69.9691 111.349L70.5769 110.914V106.312H71.4452V112.39Z" fill="white"/>
<path d="M78.1308 112.391H77.2625V108.484C77.2625 107.442 76.8283 106.834 75.9601 106.834C75.5259 106.834 75.0918 107.008 74.5708 107.355L73.963 107.789V112.391H73.0947V106.313H73.7894L73.963 107.008L74.3972 106.747C75.005 106.313 75.5259 106.14 75.9601 106.14C76.6547 106.14 77.0888 106.313 77.523 106.661C77.9571 107.095 78.1308 107.616 78.1308 108.484V112.391Z" fill="white"/>
<path d="M81.6906 112.478H81.2565C80.3882 112.478 79.8672 111.958 79.8672 111.002V104.317H78.9121V103.535H80.7355V111.002C80.7355 111.437 80.9092 111.697 81.2565 111.697H81.6906V112.478Z" fill="white"/>
<path d="M84.9905 112.478H84.5564C83.6881 112.478 83.2539 111.957 83.2539 111.002V107.442C83.2539 107.355 83.2539 107.181 83.3408 107.007H82.2988V106.226H84.1222V110.915C84.1222 111.349 84.2959 111.609 84.5564 111.609H84.9905V112.478ZM84.0354 104.576C84.0354 104.663 84.0354 104.663 84.0354 104.576L82.9935 104.663C82.9066 104.663 82.9066 104.663 82.9066 104.576V103.708C82.9066 103.621 82.9066 103.621 82.9935 103.621H83.9486C84.0354 103.621 84.0354 103.621 84.0354 103.708V104.576Z" fill="white"/>
<path d="M94.4547 112.391H93.5864V108.484C93.5864 107.355 93.2391 106.834 92.6313 106.834C92.1971 106.834 91.763 107.008 91.1552 107.442L90.721 107.703C90.721 107.876 90.8079 108.137 90.8079 108.484V112.391H89.9396V108.484C89.9396 107.355 89.5923 106.834 88.8977 106.834C88.5503 106.834 88.0294 107.008 87.5084 107.442L86.9874 107.789V112.391H86.1191V106.313H86.8138L86.9874 107.008L87.4216 106.747C88.0294 106.313 88.5503 106.14 88.8977 106.14C89.6791 106.14 90.2001 106.487 90.5474 107.095L90.9815 106.747C91.3288 106.487 91.5893 106.313 91.763 106.313C92.0235 106.226 92.3708 106.14 92.7181 106.14C93.9337 106.14 94.6283 106.921 94.6283 108.571V112.391H94.4547Z" fill="white"/>
<path d="M98.1883 112.478H97.7541C96.8858 112.478 96.4517 111.957 96.4517 111.002V107.442C96.4517 107.355 96.4517 107.181 96.5385 107.007H95.4966V106.226H97.32V110.915C97.32 111.349 97.4936 111.609 97.7541 111.609H98.1883V112.478ZM97.32 104.576C97.32 104.663 97.32 104.663 97.32 104.576L96.278 104.663C96.1912 104.663 96.1912 104.663 96.1912 104.576V103.708C96.1912 103.621 96.1912 103.621 96.278 103.621H97.2331C97.32 103.621 97.32 103.621 97.32 103.708V104.576Z" fill="white"/>
<path d="M103.224 112.045C102.79 112.392 102.182 112.566 101.401 112.566C100.359 112.566 99.8378 112.045 99.8378 110.916V107.53C99.8378 107.443 99.8378 107.269 99.9247 107.096H98.7959V106.314H99.8378V104.23L100.706 103.97V106.314H102.877L102.616 107.096H100.706V110.916C100.706 111.263 100.793 111.524 100.967 111.697C101.14 111.871 101.401 111.871 101.748 111.871C102.095 111.871 102.356 111.784 102.703 111.524L103.224 112.045Z" fill="white"/>
<path d="M109.302 109.613H104.787C104.787 110.394 104.961 110.915 105.221 111.263C105.482 111.61 106.003 111.783 106.697 111.783C107.566 111.783 108.087 111.523 108.434 110.915L109.215 111.263C108.781 112.131 108 112.565 106.697 112.565C105.742 112.565 104.961 112.304 104.527 111.783C104.093 111.263 103.832 110.481 103.832 109.352C103.832 108.31 104.006 107.529 104.44 107.008C104.874 106.487 105.655 106.14 106.697 106.14C107.739 106.14 108.434 106.487 108.868 107.095C109.129 107.529 109.302 108.31 109.302 109.352V109.613ZM108.347 108.831C108.347 108.137 108.26 107.703 108 107.355C107.739 107.008 107.305 106.834 106.697 106.834C106.09 106.834 105.655 107.008 105.308 107.268C104.961 107.616 104.787 108.137 104.787 108.831H108.347Z" fill="white"/>
<path d="M115.728 112.392H115.207L114.946 111.871C114.425 112.305 113.817 112.565 113.21 112.565C112.428 112.565 111.734 112.305 111.299 111.871C110.692 111.35 110.431 110.481 110.431 109.353C110.431 107.182 111.299 106.14 113.123 106.14C113.731 106.14 114.338 106.314 114.946 106.748C114.859 106.574 114.859 106.4 114.859 106.227V103.535H115.728V112.392ZM114.859 111.176V107.442C114.425 107.182 114.078 107.095 113.991 107.095C113.644 107.008 113.383 106.921 113.123 106.921C112.515 106.921 112.081 107.095 111.734 107.529C111.473 107.963 111.299 108.571 111.299 109.439C111.299 111.089 111.907 111.958 113.21 111.958C113.644 111.871 114.165 111.61 114.859 111.176Z" fill="white"/>
</svg>
